<svg width="19" height="19" viewBox="0 0 19 19" fill="none" xmlns="http://www.w3.org/2000/svg">
<path d="M12.1127 13.2209L13.221 12.1125L10.2918 9.18337V5.54171H8.7085V9.81671L12.1127 13.2209ZM9.50016 17.4167C8.40502 17.4167 7.37586 17.2089 6.41266 16.7933C5.44947 16.3776 4.61162 15.8136 3.89912 15.1011C3.18662 14.3886 2.62256 13.5507 2.20693 12.5875C1.79131 11.6243 1.5835 10.5952 1.5835 9.50004C1.5835 8.4049 1.79131 7.37573 2.20693 6.41254C2.62256 5.44935 3.18662 4.6115 3.89912 3.899C4.61162 3.1865 5.44947 2.62244 6.41266 2.20681C7.37586 1.79119 8.40502 1.58337 9.50016 1.58337C10.5953 1.58337 11.6245 1.79119 12.5877 2.20681C13.5509 2.62244 14.3887 3.1865 15.1012 3.899C15.8137 4.6115 16.3778 5.44935 16.7934 6.41254C17.209 7.37573 17.4168 8.4049 17.4168 9.50004C17.4168 10.5952 17.209 11.6243 16.7934 12.5875C16.3778 13.5507 15.8137 14.3886 15.1012 15.1011C14.3887 15.8136 13.5509 16.3776 12.5877 16.7933C11.6245 17.2089 10.5953 17.4167 9.50016 17.4167ZM9.50016 15.8334C11.255 15.8334 12.7493 15.2165 13.983 13.9829C15.2167 12.7492 15.8335 11.2549 15.8335 9.50004C15.8335 7.74518 15.2167 6.25091 13.983 5.01723C12.7493 3.78355 11.255 3.16671 9.50016 3.16671C7.7453 3.16671 6.25103 3.78355 5.01735 5.01723C3.78367 6.25091 3.16683 7.74518 3.16683 9.50004C3.16683 11.2549 3.78367 12.7492 5.01735 13.9829C6.25103 15.2165 7.7453 15.8334 9.50016 15.8334Z" fill="white"/>
</svg>
