<svg width="19" height="19" viewBox="0 0 19 19" fill="none" xmlns="http://www.w3.org/2000/svg">
<path d="M7.125 13.0625C6.57083 13.0625 6.10243 12.8712 5.71979 12.4886C5.33715 12.1059 5.14583 11.6375 5.14583 11.0834C5.14583 10.5292 5.33715 10.0608 5.71979 9.67817C6.10243 9.29553 6.57083 9.10421 7.125 9.10421C7.67917 9.10421 8.14757 9.29553 8.53021 9.67817C8.91285 10.0608 9.10417 10.5292 9.10417 11.0834C9.10417 11.6375 8.91285 12.1059 8.53021 12.4886C8.14757 12.8712 7.67917 13.0625 7.125 13.0625ZM3.95833 17.4167C3.52292 17.4167 3.15017 17.2617 2.8401 16.9516C2.53003 16.6415 2.375 16.2688 2.375 15.8334V4.75004C2.375 4.31462 2.53003 3.94188 2.8401 3.63181C3.15017 3.32174 3.52292 3.16671 3.95833 3.16671H4.75V1.58337H6.33333V3.16671H12.6667V1.58337H14.25V3.16671H15.0417C15.4771 3.16671 15.8498 3.32174 16.1599 3.63181C16.47 3.94188 16.625 4.31462 16.625 4.75004V15.8334C16.625 16.2688 16.47 16.6415 16.1599 16.9516C15.8498 17.2617 15.4771 17.4167 15.0417 17.4167H3.95833ZM3.95833 15.8334H15.0417V7.91671H3.95833V15.8334Z" fill="white"/>
</svg>
